<svg xmlns="http://www.w3.org/2000/svg" xmlns:xlink="http://www.w3.org/1999/xlink" width="172.726" height="197.363" viewBox="0 0 172.726 197.363">
  <defs>
    <clipPath id="clip-path">
      <rect id="Rectangle_6" data-name="Rectangle 6" width="172.726" height="197.363" fill="#fff"/>
    </clipPath>
  </defs>
  <g id="map" transform="translate(-1687.274 -852.95)" style="isolation: isolate">
    <g id="Groupe_2" data-name="Groupe 2" transform="translate(1687.274 852.95)" opacity="0.346">
      <g id="Groupe_1" data-name="Groupe 1" clip-path="url(#clip-path)">
        <path id="Tracé_122" data-name="Tracé 122" d="M138.476,153.156c-2.753-1.605-3.152-4.22-3.592-6.984-.233-1.463-1.515-2.738-2.209-4.154-.744-1.517-1.4-3.082-2.007-4.66-.477-1.239-.736-2.567-1.279-3.771-.144-.319-.995-.49-1.494-.443-1.141.107-2.259.475-3.4.567-.543.044-1.486-.157-1.615-.491-.682-1.766-2.179-1.976-3.7-2.367-1.87-.48-2.878-2.016-2-3.5,1.312-2.208.023-3.362-1.342-4.878a8.9,8.9,0,0,1-1.794,1.266,9.95,9.95,0,0,1-3.434.913c-2.169,0-2.784-1.431-1.589-3.277.208-.322.395-.657.635-1.059a16.257,16.257,0,0,1-3.709.2,3.38,3.38,0,0,1-2.115-1.5c-1.155-2.09-2.071-4.312-3.2-6.737-2.017,1.527-3.469.912-5-.006a2.388,2.388,0,0,0-2.059.078c-2.7,1.642-3.976,1.284-5.575-1.5a3.046,3.046,0,0,0-2.023-1.234,5.179,5.179,0,0,1-3.863-2.287c-.708-1-1.916-1.621-2.774-2.532-1.074-1.14-1.973-2.445-3.032-3.6-.856-.935-1.748-2.343-2.783-2.5a3.946,3.946,0,0,1-3.335-2.865c-.939-2.635-2.549-3.9-5.374-3.538a4.757,4.757,0,0,1-1.408-.191c-2.966-.551-3.43-1.676-1.541-4.191q-2.563-1.763-5.123-3.528c-.223-.153-.549-.279-.631-.493a3.774,3.774,0,0,0-3-2.408c-.5-.125-1.091-1.932-.833-2.7.82-2.432.22-4.381-.9-6.571a31.839,31.839,0,0,1-2.422-7.249c-.784-3.34-1.12-3.5-4.36-4.1-1.666-.308-3.188-1.631-4.664-2.655-1.386-.962-2.291-2.536-4.445-2.325-.852.083-1.79-1.095-2.743-1.6-2.663-1.4-4.629-.622-5.725,2.155-.192.488-.51,1.187-.9,1.291-2.124.567-2.7,2.49-3.759,4-1.634,2.32-7.093,4.222-9.771,3.332-1.661-.552-1.494-2.014-1.1-3.246a30.882,30.882,0,0,1,1.852-3.882c-4.731.968-7.968-1.106-10.071-4.9-1.558-2.809-.9-4.888,2.105-8.812-.859-.62-1.737-1.21-2.565-1.865-.69-.547-1.573-1.049-1.92-1.783-.518-1.1-1.132-2.561-.777-3.529.3-.813,1.875-1.461,2.967-1.618,2.525-.36,2.545-.221,3.793-1.752-.631-1.66-1.085-3.13-1.752-4.5A5.956,5.956,0,0,0,3.5,27.453c-1.642-1.383-1.71-2.736-.027-4.018A24.166,24.166,0,0,1,6.75,21.379c.418-.224,1.257-.362,1.483-.13,1.415,1.452,2.763.589,4.054-.043,1.968-.963,3.853-1.282,5.775.337l2.566-2.791c-1.231-2.028-.318-3.292,1.39-4.38,1.083-.69,2-1.634,3.078-2.339,1.588-1.041,3.414-.332,3.166,1.455-.49,3.538,1.343,4.822,4.221,5.552a2.686,2.686,0,0,1,.555.3c1.684-1.49,3.364-2.808,2.561-5.6a2.378,2.378,0,0,1,2.194-2.917,2.683,2.683,0,0,1,3.223,2.133c.175.606.342,1.215.495,1.755l4.3-1.868c.229-3.152.772-3.7,3.974-4.421A2.572,2.572,0,0,0,51.21,6.8a3.82,3.82,0,0,1,6.033-1.954c.55.39,1.029.881,1.626,1.4a3.072,3.072,0,0,0,.579-.8c.881-3.116,3.063-4.062,6.065-3.745A11.527,11.527,0,0,0,73.159.243,1.377,1.377,0,0,1,73.93,0c1.023.077,2.256-.088,2.98.435.437.317.08,1.732.08,2.668.712.964,1.28,2.415,2.331,3.008a18.358,18.358,0,0,0,5.837,2.1c3.137.535,6.346.667,9.529.919,2.414.191,3.271,1.7,1.9,3.708a17.51,17.51,0,0,1-2.57,2.469c.572.218,1.24.285,1.6.654.567.584,1.311,1.375,1.3,2.069a44.656,44.656,0,0,1-.679,5.394,19.6,19.6,0,0,1,3.181,2.6c.59.723,1.178,2.373.834,2.746a5.739,5.739,0,0,1-3.206,1.48c-1.19.182-1.771-.738-1.781-1.968,0-.284-.3-.567-.469-.854-2.692,1.761-2.692,1.761-4.738-.49-.284,2.568-1.761,3.5-4.118,3.552-.69.014-1.341.862-2.049,1.26-1.683.946-3.389,1.852-5.439,2.966,1.078,1.485,2.262,3.189,3.523,4.833a4.09,4.09,0,0,1-1.3,6.087c-1.355.63-1.956,1.307-1.32,2.754a2,2,0,0,1,.088.6,11.383,11.383,0,0,0,5.677,9.261c3.747,2.276,6.983,5.306,11.215,6.922,1.463.559,2.751,2.43,3.436,4,1.488,3.406,2.58,6.99,3.755,10.527,1.665,5.012,5.2,8.276,9.669,10.776.868.485,1.434,1.487,2.2,2.185a8.321,8.321,0,0,0,2.287,1.78c3.227,1.264,6.564.732,9.861.264a37.69,37.69,0,0,0,3.752-.872c2.163-.538,3.827.036,4.8,1.673s.689,3.318-.92,4.976c-.752.775-1.586,1.469-2.751,2.537a25.917,25.917,0,0,0,3.995,2.056c3.036.942,6.138,1.674,9.221,2.463a20.779,20.779,0,0,1,8.175,3.919c1.35,1.093,3.265,1.513,4.958,2.148,1.328.5,2.739.784,4.051,1.316.656.266,1.619.821,1.677,1.332.265,2.316,2.152,2.752,3.716,3.594a8.076,8.076,0,0,1,4.441,5.3,8.888,8.888,0,0,1-.389,3.24c-.158.9-.5,1.772-.586,2.673-.244,2.634-1.671,3.589-4.162,2.764-2.928-.969-5.009-2.73-5.522-5.9-.323-2-1.335-2.757-3.359-2.458a9.306,9.306,0,0,1-7.84-1.962c-1.109-.953-2.008-.585-2.526.724-1.024,2.589-3.065,4.8-2.7,7.926.091.786-.66,1.736-1.176,2.51-.775,1.163-.47,1.562.826,1.893a31.787,31.787,0,0,1,4.608,1.686c.976.419,1.832,1.12,2.809,1.537,1.452.62,2.259,1.411,1.591,3.123a1.882,1.882,0,0,0,.239,1.54c2.36,3.171,1.265,6.848-2.465,8.072-1.288.423-2.6.768-3.865,1.257a2.288,2.288,0,0,0-1.546,3.212,6.785,6.785,0,0,1,.349,3.759c-.383,1.21-1.558,2.18-2.427,3.222s-1.877,1.976-2.647,3.082a9.464,9.464,0,0,0-.8,2.292q-1.8,5.123-7.024,3.71c-2.613-.7-4.936-4.387-4.179-7.054a5.112,5.112,0,0,1,2.075-2.523c1.532-1.015,2.074-2.513,1.105-4.071-1.239-1.992-.092-4.25,2.474-4.879.935-.23,1.867-.476,2.8-.715l.151-.647" transform="translate(0 0)" fill="#fff"/>
        <path id="Tracé_123" data-name="Tracé 123" d="M183.929,406.111c1.432-3.578,2.634-4.346,5.923-4.021a2.329,2.329,0,0,1,1.138.328c1.33,1.011,2.537,2.206,3.946,3.079a3.075,3.075,0,0,0,2.5.263,8.511,8.511,0,0,1,5.67-.872,5.706,5.706,0,0,0,5.725-1.87,2.69,2.69,0,0,1,.459-.4c2.154-1.508,4.322-2.773,6.47-.216.706-1.019,1.153-2.42,1.935-2.643a16.717,16.717,0,0,1,6.037-.7c2.149.206,2.411,1.7,1.228,3.471-3.086,4.615-4.8,9.793-6.108,15.218.976.488,2.176.689,2.435,1.292a32.1,32.1,0,0,1,1.708,5.772c.074.337-.636,1.06-1.127,1.268-1.753.745-2.141,2.078-2.021,3.8a4.463,4.463,0,0,1-.291,2.166c-.646,1.335-1.625,1.245-2.875.585a5.178,5.178,0,0,0-3.01-.6c-3.236.521-6.374-.535-7.78-3.392-1.326-2.695-3.19-3.528-6.052-3.252a6.511,6.511,0,0,1-6.023-2.3c-.126-.158-.273-.408-.425-.419-3.42-.24-5.556-2.962-8.4-4.284a4.8,4.8,0,0,0-2.9-.2,3.582,3.582,0,0,1-3.86-1.1c-.5-.559-1.05-1.066-1.541-1.628-2.825-3.231-2.375-7.168,1.062-9.756a7.6,7.6,0,0,0,1.352-1.49c1.59-2.07,3.107-1.865,4.157.574.153.355.351.69.676,1.324" transform="translate(-103.289 -235.728)" fill="#fff"/>
        <path id="Tracé_124" data-name="Tracé 124" d="M47.652,285.612c-2.475.625-3.39.1-3.342-2.15a32.209,32.209,0,0,1,.874-4.908,7.41,7.41,0,0,1,.2-1.514c.318-.754.639-1.714,1.255-2.062.4-.229,1.54.28,1.987.781,2.034,2.278,2.1,2.433,4.619.669,2.552-1.789,4.974-3.773,7.373-5.767,1.106-.919,1.888-1.2,3.139-.1.915.8,2.288,1.069,3.445,1.6,2.339,1.075,2.717,2.124,2.577,4.651a6.349,6.349,0,0,0,1.2,3.539,6.843,6.843,0,0,1-.262,8.4c-.52.615-1.051,1.22-1.748,2.027,2.445,1.6,1.537,3.645,1.2,5.809-.53,3.413-.473,6.915-.943,10.342a21.218,21.218,0,0,1-1.682,5.193c-.586,1.394-1.631,1.631-2.97.728-1.153-.777-2.425-1.378-3.989-2.249A19.929,19.929,0,0,0,60,313.4c-.137,2.719-5.393,5.907-7.678,4.414-.995-.65-1.442-2.137-2.289-3.483-.225,0-1.057.248-1.507-.06a4.446,4.446,0,0,1-1.347-1.862c1-.958.092-1.844.116-2.741a20.129,20.129,0,0,1,.715-5.3,11.819,11.819,0,0,0,.1-7.339c-.448-1.422-1.048-3.275.657-4.65a1.839,1.839,0,0,0,.362-1.546c-.4-1.709-.944-3.384-1.478-5.225" transform="translate(-26.177 -159.425)" fill="#fff"/>
      </g>
    </g>
    <g id="Groupe_3" data-name="Groupe 3" transform="translate(1687.274 852.95)" opacity="0.715">
      <g id="Groupe_1-2" data-name="Groupe 1" clip-path="url(#clip-path)">
        <path id="Tracé_122-2" data-name="Tracé 122" d="M138.476,153.156c-2.753-1.605-3.152-4.22-3.592-6.984-.233-1.463-1.515-2.738-2.209-4.154-.744-1.517-1.4-3.082-2.007-4.66-.477-1.239-.736-2.567-1.279-3.771-.144-.319-.995-.49-1.494-.443-1.141.107-2.259.475-3.4.567-.543.044-1.486-.157-1.615-.491-.682-1.766-2.179-1.976-3.7-2.367-1.87-.48-2.878-2.016-2-3.5,1.312-2.208.023-3.362-1.342-4.878a8.9,8.9,0,0,1-1.794,1.266,9.95,9.95,0,0,1-3.434.913c-2.169,0-2.784-1.431-1.589-3.277.208-.322.395-.657.635-1.059a16.257,16.257,0,0,1-3.709.2,3.38,3.38,0,0,1-2.115-1.5c-1.155-2.09-2.071-4.312-3.2-6.737-2.017,1.527-3.469.912-5-.006a2.388,2.388,0,0,0-2.059.078c-2.7,1.642-3.976,1.284-5.575-1.5a3.046,3.046,0,0,0-2.023-1.234,5.179,5.179,0,0,1-3.863-2.287c-.708-1-1.916-1.621-2.774-2.532-1.074-1.14-1.973-2.445-3.032-3.6-.856-.935-1.748-2.343-2.783-2.5a3.946,3.946,0,0,1-3.335-2.865c-.939-2.635-2.549-3.9-5.374-3.538a4.757,4.757,0,0,1-1.408-.191c-2.966-.551-3.43-1.676-1.541-4.191q-2.563-1.763-5.123-3.528c-.223-.153-.549-.279-.631-.493a3.774,3.774,0,0,0-3-2.408c-.5-.125-1.091-1.932-.833-2.7.82-2.432.22-4.381-.9-6.571a31.839,31.839,0,0,1-2.422-7.249c-.784-3.34-1.12-3.5-4.36-4.1-1.666-.308-3.188-1.631-4.664-2.655-1.386-.962-2.291-2.536-4.445-2.325-.852.083-1.79-1.095-2.743-1.6-2.663-1.4-4.629-.622-5.725,2.155-.192.488-.51,1.187-.9,1.291-2.124.567-2.7,2.49-3.759,4-1.634,2.32-7.093,4.222-9.771,3.332-1.661-.552-1.494-2.014-1.1-3.246a30.882,30.882,0,0,1,1.852-3.882c-4.731.968-7.968-1.106-10.071-4.9-1.558-2.809-.9-4.888,2.105-8.812-.859-.62-1.737-1.21-2.565-1.865-.69-.547-1.573-1.049-1.92-1.783-.518-1.1-1.132-2.561-.777-3.529.3-.813,1.875-1.461,2.967-1.618,2.525-.36,2.545-.221,3.793-1.752-.631-1.66-1.085-3.13-1.752-4.5A5.956,5.956,0,0,0,3.5,27.453c-1.642-1.383-1.71-2.736-.027-4.018A24.166,24.166,0,0,1,6.75,21.379c.418-.224,1.257-.362,1.483-.13,1.415,1.452,2.763.589,4.054-.043,1.968-.963,3.853-1.282,5.775.337l2.566-2.791c-1.231-2.028-.318-3.292,1.39-4.38,1.083-.69,2-1.634,3.078-2.339,1.588-1.041,3.414-.332,3.166,1.455-.49,3.538,1.343,4.822,4.221,5.552a2.686,2.686,0,0,1,.555.3c1.684-1.49,3.364-2.808,2.561-5.6a2.378,2.378,0,0,1,2.194-2.917,2.683,2.683,0,0,1,3.223,2.133c.175.606.342,1.215.495,1.755l4.3-1.868c.229-3.152.772-3.7,3.974-4.421A2.572,2.572,0,0,0,51.21,6.8a3.82,3.82,0,0,1,6.033-1.954c.55.39,1.029.881,1.626,1.4a3.072,3.072,0,0,0,.579-.8c.881-3.116,3.063-4.062,6.065-3.745A11.527,11.527,0,0,0,73.159.243,1.377,1.377,0,0,1,73.93,0c1.023.077,2.256-.088,2.98.435.437.317.08,1.732.08,2.668.712.964,1.28,2.415,2.331,3.008a18.358,18.358,0,0,0,5.837,2.1c3.137.535,6.346.667,9.529.919,2.414.191,3.271,1.7,1.9,3.708a17.51,17.51,0,0,1-2.57,2.469c.572.218,1.24.285,1.6.654.567.584,1.311,1.375,1.3,2.069a44.656,44.656,0,0,1-.679,5.394,19.6,19.6,0,0,1,3.181,2.6c.59.723,1.178,2.373.834,2.746a5.739,5.739,0,0,1-3.206,1.48c-1.19.182-1.771-.738-1.781-1.968,0-.284-.3-.567-.469-.854-2.692,1.761-2.692,1.761-4.738-.49-.284,2.568-1.761,3.5-4.118,3.552-.69.014-1.341.862-2.049,1.26-1.683.946-3.389,1.852-5.439,2.966,1.078,1.485,2.262,3.189,3.523,4.833a4.09,4.09,0,0,1-1.3,6.087c-1.355.63-1.956,1.307-1.32,2.754a2,2,0,0,1,.088.6,11.383,11.383,0,0,0,5.677,9.261c3.747,2.276,6.983,5.306,11.215,6.922,1.463.559,2.751,2.43,3.436,4,1.488,3.406,2.58,6.99,3.755,10.527,1.665,5.012,5.2,8.276,9.669,10.776.868.485,1.434,1.487,2.2,2.185a8.321,8.321,0,0,0,2.287,1.78c3.227,1.264,6.564.732,9.861.264a37.69,37.69,0,0,0,3.752-.872c2.163-.538,3.827.036,4.8,1.673s.689,3.318-.92,4.976c-.752.775-1.586,1.469-2.751,2.537a25.917,25.917,0,0,0,3.995,2.056c3.036.942,6.138,1.674,9.221,2.463a20.779,20.779,0,0,1,8.175,3.919c1.35,1.093,3.265,1.513,4.958,2.148,1.328.5,2.739.784,4.051,1.316.656.266,1.619.821,1.677,1.332.265,2.316,2.152,2.752,3.716,3.594a8.076,8.076,0,0,1,4.441,5.3,8.888,8.888,0,0,1-.389,3.24c-.158.9-.5,1.772-.586,2.673-.244,2.634-1.671,3.589-4.162,2.764-2.928-.969-5.009-2.73-5.522-5.9-.323-2-1.335-2.757-3.359-2.458a9.306,9.306,0,0,1-7.84-1.962c-1.109-.953-2.008-.585-2.526.724-1.024,2.589-3.065,4.8-2.7,7.926.091.786-.66,1.736-1.176,2.51-.775,1.163-.47,1.562.826,1.893a31.787,31.787,0,0,1,4.608,1.686c.976.419,1.832,1.12,2.809,1.537,1.452.62,2.259,1.411,1.591,3.123a1.882,1.882,0,0,0,.239,1.54c2.36,3.171,1.265,6.848-2.465,8.072-1.288.423-2.6.768-3.865,1.257a2.288,2.288,0,0,0-1.546,3.212,6.785,6.785,0,0,1,.349,3.759c-.383,1.21-1.558,2.18-2.427,3.222s-1.877,1.976-2.647,3.082a9.464,9.464,0,0,0-.8,2.292q-1.8,5.123-7.024,3.71c-2.613-.7-4.936-4.387-4.179-7.054a5.112,5.112,0,0,1,2.075-2.523c1.532-1.015,2.074-2.513,1.105-4.071-1.239-1.992-.092-4.25,2.474-4.879.935-.23,1.867-.476,2.8-.715l.151-.647" transform="translate(0 0)" fill="#fff"/>
        <path id="Tracé_123-2" data-name="Tracé 123" d="M183.929,406.111c1.432-3.578,2.634-4.346,5.923-4.021a2.329,2.329,0,0,1,1.138.328c1.33,1.011,2.537,2.206,3.946,3.079a3.075,3.075,0,0,0,2.5.263,8.511,8.511,0,0,1,5.67-.872,5.706,5.706,0,0,0,5.725-1.87,2.69,2.69,0,0,1,.459-.4c2.154-1.508,4.322-2.773,6.47-.216.706-1.019,1.153-2.42,1.935-2.643a16.717,16.717,0,0,1,6.037-.7c2.149.206,2.411,1.7,1.228,3.471-3.086,4.615-4.8,9.793-6.108,15.218.976.488,2.176.689,2.435,1.292a32.1,32.1,0,0,1,1.708,5.772c.074.337-.636,1.06-1.127,1.268-1.753.745-2.141,2.078-2.021,3.8a4.463,4.463,0,0,1-.291,2.166c-.646,1.335-1.625,1.245-2.875.585a5.178,5.178,0,0,0-3.01-.6c-3.236.521-6.374-.535-7.78-3.392-1.326-2.695-3.19-3.528-6.052-3.252a6.511,6.511,0,0,1-6.023-2.3c-.126-.158-.273-.408-.425-.419-3.42-.24-5.556-2.962-8.4-4.284a4.8,4.8,0,0,0-2.9-.2,3.582,3.582,0,0,1-3.86-1.1c-.5-.559-1.05-1.066-1.541-1.628-2.825-3.231-2.375-7.168,1.062-9.756a7.6,7.6,0,0,0,1.352-1.49c1.59-2.07,3.107-1.865,4.157.574.153.355.351.69.676,1.324" transform="translate(-103.289 -235.728)" fill="#fff"/>
        <path id="Tracé_124-2" data-name="Tracé 124" d="M47.652,285.612c-2.475.625-3.39.1-3.342-2.15a32.209,32.209,0,0,1,.874-4.908,7.41,7.41,0,0,1,.2-1.514c.318-.754.639-1.714,1.255-2.062.4-.229,1.54.28,1.987.781,2.034,2.278,2.1,2.433,4.619.669,2.552-1.789,4.974-3.773,7.373-5.767,1.106-.919,1.888-1.2,3.139-.1.915.8,2.288,1.069,3.445,1.6,2.339,1.075,2.717,2.124,2.577,4.651a6.349,6.349,0,0,0,1.2,3.539,6.843,6.843,0,0,1-.262,8.4c-.52.615-1.051,1.22-1.748,2.027,2.445,1.6,1.537,3.645,1.2,5.809-.53,3.413-.473,6.915-.943,10.342a21.218,21.218,0,0,1-1.682,5.193c-.586,1.394-1.631,1.631-2.97.728-1.153-.777-2.425-1.378-3.989-2.249A19.929,19.929,0,0,0,60,313.4c-.137,2.719-5.393,5.907-7.678,4.414-.995-.65-1.442-2.137-2.289-3.483-.225,0-1.057.248-1.507-.06a4.446,4.446,0,0,1-1.347-1.862c1-.958.092-1.844.116-2.741a20.129,20.129,0,0,1,.715-5.3,11.819,11.819,0,0,0,.1-7.339c-.448-1.422-1.048-3.275.657-4.65a1.839,1.839,0,0,0,.362-1.546c-.4-1.709-.944-3.384-1.478-5.225" transform="translate(-26.177 -159.425)" fill="#fff"/>
      </g>
    </g>
  </g>
</svg>
